Coordinates
version=1
nRows=8
nColumns=33
inDegrees=yes

Units are S.I. units (second, meters, Newtons, ...)
Angles are in degrees.

endheader
time	ground_thorax_rot_x	ground_thorax_rot_y	ground_thorax_rot_z	ground_thorax_tx	ground_thorax_ty	ground_thorax_tz	clav_prot_r	clav_elev_r	scapula_abduction_r	scapula_elevation_r	scapula_upward_rot_r	scapula_winging_r	shoulder_elv_r	plane_of_elev_r	axial_rot_r	elbow_flexion_r	pro_sup_r	wrist_flex_r	wrist_dev_r	clav_prot_l	clav_elev_l	scapula_abduction_l	scapula_elevation_l	scapula_upward_rot_l	scapula_winging_l	shoulder_elv_l	plane_of_elev_l	axial_rot_l	elbow_flexion_l	pro_sup_l	wrist_flex_l	wrist_dev_l
      6.88000000	    -25.83446129	    -32.36929211	     46.34060884	    -75.14059682	    851.80629537	    -43.51109413	     22.12790551	    -45.00000000	     44.72151941	    -45.00000000	    -20.99828155	   1684.65130429	   2064.07025933	    144.85222660	   -179.99999979	   1793.56596303	     59.46125346	     30.01290018	     18.10914242	     -2.12878556	     33.84292788	    -31.99633620	    -45.00000000	    -45.00000000	   4050.31297098	  -4407.41301129	    133.19739183	   -110.36838933	    710.37124002	    401.71980175	     14.97424643	    -21.37457710
      6.89000000	    -25.41447846	    -32.55321730	     47.00530073	    -72.18270715	    850.52741156	    -43.31991401	     22.15737865	    -45.00000000	     44.48056524	    -45.00000000	    -21.41327315	   1684.93697797	   2063.94237446	    144.90683642	   -179.99999979	   1793.70052740	     59.45635744	     29.87594007	     18.16611154	     -1.96741630	     33.83369303	    -31.99690537	    -45.00000000	    -45.00000000	   4050.08700564	  -4407.40496247	    133.23062658	   -110.11241009	    710.30070607	    401.71291882	     15.08994418	    -21.16191628
      6.90000000	    -24.94932268	    -32.78536993	     47.68880419	    -69.20509674	    849.18140695	    -43.11273344	     22.27118224	    -45.00000000	     44.41222248	    -45.00000000	    -21.85225456	   1685.11982856	   2063.73836461	    144.95599655	   -179.99999979	   1793.81481973	     59.44064312	     29.77550015	     18.24213935	     -1.88183447	     33.79864833	    -31.95057583	    -45.00000000	    -45.00000000	   4049.93035192	  -4407.47779209	    133.22842530	   -109.75972205	    710.26947414	    401.68801191	     15.17492665	    -20.95672239
      6.91000000	    -24.44931357	    -33.03731850	     48.42061378	    -66.20493217	    847.77160712	    -42.89556322	     22.32076228	    -45.00000000	     44.33732424	    -45.00000000	    -22.28032076	   1685.30366544	   2063.54987800	    145.02857835	   -179.99999979	   1793.93400282	     59.40859164	     29.65585519	     18.30027051	     -1.83327336	     33.74218082	    -31.91263707	    -45.00000000	    -45.00000000	   4049.75586527	  -4407.50462267	    133.27151869	   -109.39082782	    710.14451720	    401.67686295	     15.25608415	    -20.71244451
      6.92000000	    -23.81882350	    -33.37887843	     49.32792476	    -63.19491358	    846.30160056	    -42.66949495	     22.45105361	    -45.00000000	     44.40762688	    -45.00000000	    -22.63434835	   1685.23107309	   2063.28887199	    144.93009558	   -179.99999979	   1793.91774374	     59.39919795	     29.52112870	     18.37794110	     -1.99671749	     33.70783426	    -31.71066426	    -45.00000000	    -45.00000000	   4049.70679150	  -4407.52078968	    133.17856126	   -109.13388559	    710.09358657	    401.65981079	     15.26057892	    -20.45634950
      6.93000000	    -23.30122291	    -33.64025880	     50.10288824	    -60.18933306	    844.78007479	    -42.43453581	     22.47450706	    -45.00000000	     44.31444443	    -45.00000000	    -22.89798132	   1685.35652596	   2063.11519747	    144.99023785	   -179.99999979	   1793.95039911	     59.37547196	     29.32710669	     18.41671910	     -1.91770101	     33.66645493	    -31.67985887	    -45.00000000	    -45.00000000	   4049.52026163	  -4407.57685571	    133.28445279	   -108.93638058	    709.95975168	    401.65331691	     15.32803231	    -20.21856377
      6.94000000	    -22.47231253	    -34.13446655	     51.28077663	    -57.20047723	    843.20127033	    -42.19120535	     22.61444009	    -45.00000000	     44.49064051	    -45.00000000	    -23.29174422	   1685.08353707	   2062.77542797	    144.74618452	   -179.99999979	   1793.80389344	     59.40020888	     29.20854613	     18.51765760	     -2.31056937	     33.61035083	    -31.33724949	    -45.00000000	    -45.00000000	   4049.59354592	  -4407.59417851	    133.15922766	   -108.82752788	    709.88889505	    401.66441834	     15.30294017	    -19.97298281
      6.95000000	    -21.77810843	    -34.51318176	     52.32211711	    -54.23201941	    841.56519400	    -41.94390564	     22.56807510	    -45.00000000	     44.48515375	    -45.00000000	    -23.53675535	   1685.00359272	   2062.55022075	    144.68292903	   -179.99999979	   1793.67225587	     59.43283303	     28.97116233	     18.56055463	     -2.40907439	     33.56211920	    -31.13664725	    -45.00000000	    -45.00000000	   4049.46462450	  -4407.64555574	    133.26553923	   -108.89300640	    709.76943866	    401.69586287	     15.33076075	    -19.73702921
